<svg xmlns="http://www.w3.org/2000/svg" xmlns:xlink="http://www.w3.org/1999/xlink" width="70" height="70" viewBox="0 0 70 70" fill="none">
    <path d="M35 64.1667C51.1083 64.1667 64.1667 51.1083 64.1667 35C64.1667 18.8917 51.1083 5.83334 35 5.83334C18.8917 5.83334 5.83334 18.8917 5.83334 35C5.83334 51.1083 18.8917 64.1667 35 64.1667Z" stroke="rgba(155, 155, 155, 1.00)" stroke-width="3" stroke-linejoin="round" stroke-linecap="round" >
    </path>
    <path    stroke="rgba(155, 155, 155, 1.00)" stroke-width="3" stroke-linejoin="round" stroke-linecap="round"  d="M45.2083 10.2083L45.2083 35">
    </path>
    <path    stroke="rgba(155, 155, 155, 1.00)" stroke-width="3" stroke-linejoin="round" stroke-linecap="round"  d="M24.2604 9.67749L44.8844 30.3014">
    </path>
    <path    stroke="rgba(155, 155, 155, 1.00)" stroke-width="3" stroke-linejoin="round" stroke-linecap="round"  d="M10.2083 24.7917L35 24.7917">
    </path>
    <path    stroke="rgba(155, 155, 155, 1.00)" stroke-width="3" stroke-linejoin="round" stroke-linecap="round"  d="M29.698 25.7192L9.07391 46.3431">
    </path>
    <path    stroke="rgba(155, 155, 155, 1.00)" stroke-width="3" stroke-linejoin="round" stroke-linecap="round"  d="M24.7917 36.4583L24.7917 61.25">
    </path>
    <path    stroke="rgba(155, 155, 155, 1.00)" stroke-width="3" stroke-linejoin="round" stroke-linecap="round"  d="M25.7187 40.3025L46.3428 60.9264">
    </path>
    <path    stroke="rgba(155, 155, 155, 1.00)" stroke-width="3" stroke-linejoin="round" stroke-linecap="round"  d="M35 45.2083L61.25 45.2083">
    </path>
    <path    stroke="rgba(155, 155, 155, 1.00)" stroke-width="3" stroke-linejoin="round" stroke-linecap="round"  d="M61.7813 24.2608L41.1572 44.8847">
    </path>
    <path d="M35 45.2083C40.6379 45.2083 45.2083 40.6379 45.2083 35C45.2083 29.3621 40.6379 24.7917 35 24.7917C29.3621 24.7917 24.7917 29.3621 24.7917 35C24.7917 40.6379 29.3621 45.2083 35 45.2083Z" stroke="rgba(155, 155, 155, 1.00)" stroke-width="3" stroke-linejoin="round" stroke-linecap="round" >
    </path>
</svg>
