<svg xmlns="http://www.w3.org/2000/svg" xmlns:xlink="http://www.w3.org/1999/xlink" width="70" height="70" viewBox="0 0 70 70" fill="none">
    <path d="M35 64.1667C51.1083 64.1667 64.1667 51.1083 64.1667 35C64.1667 18.8917 51.1083 5.83334 35 5.83334C18.8917 5.83334 5.83334 18.8917 5.83334 35C5.83334 51.1083 18.8917 64.1667 35 64.1667Z" stroke="rgba(155, 155, 155, 1.00)" stroke-width="3" stroke-linejoin="round" stroke-linecap="round" >
    </path>
    <path d="M35 33.5417C39.0271 33.5417 42.2917 30.2771 42.2917 26.25C42.2917 22.223 39.0271 18.9583 35 18.9583C30.973 18.9583 27.7083 22.223 27.7083 26.25C27.7083 30.2771 30.973 33.5417 35 33.5417Z" stroke="rgba(155, 155, 155, 1.00)" stroke-width="3" stroke-linejoin="round"  >
    </path>
    <path    stroke="rgba(155, 155, 155, 1.00)" stroke-width="3" stroke-linejoin="round" stroke-linecap="round"  d="M14.6154 55.9008C15.1166 48.3009 21.4398 42.2917 29.1667 42.2917L40.8333 42.2917C48.55 42.2917 54.8667 48.285 55.3827 55.8706">
    </path>
</svg>
